<svg xmlns="http://www.w3.org/2000/svg" width="123" height="123" viewBox="0 0 123 123"><defs><style>.a{fill:#fff;}</style></defs><path class="a" d="M104.514,57.888H97.265c-.416,0-.591,0-.649-.533A36.2,36.2,0,0,0,64.829,25.561a34.633,34.633,0,0,0-19.584,3.188,35.723,35.723,0,0,0-19.809,24.22,33.909,33.909,0,0,0-.566,14.374A36.188,36.188,0,0,0,81.159,91.33a1.191,1.191,0,0,0,.183-.2c-2.039-1.373-4.045-2.722-6.034-4.087a.67.67,0,0,0-.724,0A29.126,29.126,0,0,1,35.79,46.285,28.673,28.673,0,0,1,50.6,34.125a28.3,28.3,0,0,1,14.8-1.39A29.131,29.131,0,0,1,89.532,57.43c.083.566-.3.391-.541.391H81.734c-.5,0-.724.05-.4.608L93.1,78.7a1.9,1.9,0,0,0,.191.241c1.024-1.748,2.039-3.446,3.021-5.152q4.361-7.491,8.7-15.073C105.463,57.913,105.471,57.9,104.514,57.888ZM38.129,65.92c2.439.15,4.861.424,7.291.649,3.2.3,6.409.624,9.613.916a1.465,1.465,0,0,1,.982.449,7.5,7.5,0,1,0,10.57-10.629,2.5,2.5,0,0,1-.774-1.665q-.524-7.366-1.107-14.69c-.058-.832-.108-1.665-.158-2.5A1.665,1.665,0,0,0,63,36.788a21.482,21.482,0,0,0-2.738,0,1.723,1.723,0,0,0-1.706,1.773c-.291,3.8-.616,7.6-.916,11.394-.141,1.823-.275,3.637-.375,5.46a2.5,2.5,0,0,1-.666,1.44c-1.065,1.382-2.5,1.482-4.053,1.606-4.994.424-9.938.882-14.907,1.332a1.914,1.914,0,0,0-2.006,2.2c0,.3,0,.591,0,.891h0v.483C35.532,65.387,36.539,65.828,38.129,65.92ZM61.5,0A61.5,61.5,0,1,0,123,61.5,61.5,61.5,0,0,0,61.5,0Zm-.083,112.879A51.171,51.171,0,1,1,97.876,97.933a51.379,51.379,0,0,1-36.459,14.946Z"/></svg>