<svg xmlns="http://www.w3.org/2000/svg" width="123" height="123" viewBox="0 0 123 123"><defs><style>.a{fill:#fff;}</style></defs><path class="a" d="M87.393,57.322c-.466-6.093-1.573-12.127-1.457-18.261.058-3.055.175-6.109.375-9.156.117-1.823-.624-2.422-2.4-2.405-5.543.075-11.078,0-16.646,0-3.862,0-7.724.075-11.586,0a32.677,32.677,0,0,0-10.97,1.357c-3.754,1.207-3.812,1.04-4.02,5.094,0,.724-.05,1.457-.067,2.181a102.54,102.54,0,0,1-1.565,15.623c-1.989,11.394-3.854,22.814-5.768,34.225-.216,1.3-.408,2.705.633,3.737,3.2,3.154,6.517,5.926,11.486,5.826,7.133-.183,14.258-.566,21.374-1.057,6.817-.458,13.633-1,20.408-2.006,1.973-.291,2.705-1.14,2.655-3.146-.092-3.2-.2-6.4-.5-9.6C88.675,72.245,87.943,64.788,87.393,57.322ZM65.886,82.483c-8.24,0-15.456-7.283-15.348-15.423A15.514,15.514,0,0,1,65.9,51.745,15.256,15.256,0,0,1,81.268,67.176,15.523,15.523,0,0,1,65.886,82.483Zm7.249-14.89a1.407,1.407,0,0,1-1.906.117c-2.405-1.506-4.827-2.98-7.266-4.445-.832-.508-1.357-1.09-.891-2.106.233-1.914-.325-3.4-2.33-3.862-1.665-.383-3.179.125-3.712,1.839A6.492,6.492,0,0,1,55.208,62.2a2.8,2.8,0,0,0-.275,3.962c.932,1.3,2.5,1.881,3.637,1.065,1.848-1.29,3.038-.433,4.461.508,1.665,1.124,3.446,2.181,5.21,3.2a2.772,2.772,0,0,1,1.665,2.788,2.838,2.838,0,0,0,2.8,3.246,3.088,3.088,0,0,0,3.454-2.672,3.113,3.113,0,0,1,1.074-1.8c1.665-1.448,1.831-3.163.7-4.619S74.909,66.194,73.136,67.593ZM61.5,0A61.5,61.5,0,1,0,123,61.5,61.5,61.5,0,0,0,61.5,0Zm-.083,112.879A51.171,51.171,0,1,1,97.876,97.933a51.379,51.379,0,0,1-36.459,14.946Z"/></svg>