<svg xmlns="http://www.w3.org/2000/svg" width="123" height="123" viewBox="0 0 123 123"><defs><style>.a{fill:#fff;}</style></defs><path class="a" d="M41.907,53.077a9.813,9.813,0,1,0-9.755-9.855,9.913,9.913,0,0,0,9.755,9.855Zm5.368,4.661a13.267,13.267,0,0,1,.125-1.831A30.371,30.371,0,0,0,24.7,61c-2.838,2-2.247,3.787-2.247,13.017,0,1.065-2.239,1.032,16.338.965a9.472,9.472,0,0,1,2.9-3.08A34.616,34.616,0,0,1,50.9,67.285a14.149,14.149,0,0,1-3.629-9.547Zm33.759-4.661a9.813,9.813,0,1,0-9.755-9.855,9.913,9.913,0,0,0,9.755,9.855ZM61.467,67.609a9.813,9.813,0,1,0-9.755-9.855A9.921,9.921,0,0,0,61.467,67.609ZM61.5,0A61.5,61.5,0,1,0,123,61.5,61.5,61.5,0,0,0,61.5,0Zm-.092,112.879A51.171,51.171,0,1,1,97.873,97.936,51.379,51.379,0,0,1,61.408,112.879Zm39.186-47.692c0-5.1-11.969-11.652-24.928-9.156a14.682,14.682,0,0,1,.117,1.914,14.233,14.233,0,0,1-3.512,9.23c5.3,1.665,9.563,4.486,11.711,7.824H99.795c1.049-.092.816,1.049.8-9.813ZM44.263,75.533c-2.838,2.006-2.239,3.787-2.239,13.026,0,1.373-3.729.916,38.228.907,1.032,0,.832,1.115.774-9.746C81.018,73.061,60.643,64,44.263,75.533Z"/></svg>