<svg xmlns="http://www.w3.org/2000/svg" width="123" height="123" viewBox="0 0 123 123"><defs><style>.a{fill:#fff;}</style></defs><path class="a" d="M61.5,0A61.5,61.5,0,1,0,123,61.5,61.515,61.515,0,0,0,61.5,0Zm.416,112.847h-.5a51.265,51.265,0,1,1,.5,0ZM52.845,62.665c-.832-2-1.581-4.078-2.33-6.075-1.748-4.744-3.246-9.487-4.66-14.314a7.15,7.15,0,0,1-.416-2.663c.083-1,.083-2.081.166-3.162.083-.915.166-1.082,1.165-1.248,1.914-.416,2.247-.832,2.081-2.663a6.542,6.542,0,0,0-.666-2.164A24.1,24.1,0,0,0,46.6,27.962,4.752,4.752,0,0,0,42.193,25.8c-2.913.083-5.825,0-8.821.083a11.255,11.255,0,0,0-2.413.333,3.7,3.7,0,0,0-1.748,1,1.272,1.272,0,0,0-.166,1.664,7.187,7.187,0,0,0,1.082,1.165,2.373,2.373,0,0,1,.915,2.58c-.25,1.248-.583,2.5-.832,3.745-.166.749-.25,1.5-.416,2.247a.672.672,0,0,0,.333.749.8.8,0,0,0,.832-.25c.5-.583,1-1.165,1.415-1.748a17.048,17.048,0,0,0,1.581-3,1.422,1.422,0,0,1,1.914-.915l.5.25a1.459,1.459,0,0,1,.832,1.664,21.924,21.924,0,0,0-.25,4.078,3.047,3.047,0,0,1-.333,1.5,3.817,3.817,0,0,0-.083,3.662,2.035,2.035,0,0,1-.083,2.164,3.164,3.164,0,0,0,.083,4.161,1.775,1.775,0,0,1,.083,1.914,3.94,3.94,0,0,0-.333,3.079,2.883,2.883,0,0,1-1,3.246,21.047,21.047,0,0,0-3.578,3.246,8.587,8.587,0,0,0-2.164,3.662,38.925,38.925,0,0,0-.915,9.82c.083,3.329.416,6.574.749,9.9a26.11,26.11,0,0,0,1.248,6.158,2.328,2.328,0,0,0,2.33,1.748h8.322c2.58,0,5.076-.083,7.656,0a3.212,3.212,0,0,0,3.5-2.5,31.485,31.485,0,0,0,1.415-4.993,73.042,73.042,0,0,0,.832-14.147A28.178,28.178,0,0,0,52.845,62.665ZM99.365,60.5v-.583c0-.583-.333-.749-.832-.5l-1,.5L83.8,67.159c-1.165.583-2.33,1.248-3.412,1.831a1.373,1.373,0,0,0-.749,1.248V82.472h0V93.457c0,.666-.333,1.5.333,1.914.583.25,1.082-.416,1.664-.666l.25-.166c5.243-3.079,10.569-6.158,15.9-9.237,1.831-1.082,1.581-.832,1.581-2.663,0-7.407,0-14.73,0-22.137ZM78.311,82.472V70.238a1.328,1.328,0,0,0-.666-1.165c-.333-.166-.749-.416-1.082-.583-1.248-.666-2.5-1.248-3.745-1.914-4.244-2.164-8.488-4.411-12.65-6.574-1.415-.749-1.5-.666-1.5,1V82.388c0,2.164-.25,1.914,1.914,3.162l7.74,4.494c2.829,1.664,5.576,3.246,8.405,4.91,1.748,1,1.748.583,1.748-1.082-.166-3.911-.166-7.656-.166-11.4Zm9.57-18.808c2.913-1.581,5.825-3.079,8.738-4.577.416-.25.832-.5,1.165-.749a.253.253,0,0,0,0-.333l-.083-.083a2.6,2.6,0,0,0-.832-.416c-5.243-2.33-10.569-4.577-15.812-6.824-2.413-1-1.748-1.082-4.244,0L60.585,57.672a2.155,2.155,0,0,0-.915.583,1.617,1.617,0,0,0,.915.749c5.493,2.83,11.068,5.659,16.561,8.488,2,1,1.581,1,3.578-.083C83.137,66.16,85.468,64.912,87.881,63.664Z"/></svg>