<svg xmlns="http://www.w3.org/2000/svg" width="123" height="123" viewBox="0 0 123 123"><defs><style>.a{fill:#fff;}</style></defs><path class="a" d="M91.93,84.064a14.732,14.732,0,0,0-1.873.333c-1.107.216-2.231.308-2.572-1.082-.308-1.215.658-1.615,1.565-2.023,1.174-.533,3.246-.558,2.822-2.372-.524-2.222-2.414-.782-3.745-.732a2.056,2.056,0,0,0-.316.042c-1.024.067-2.039-.075-2.214-1.265C85.363,75.3,86.8,75.242,87.86,74.85c1.182-.433,2.747-.716,2.164-2.5-.458-1.39-1.665-.832-2.73-.6-1.307.3-2.913,1.115-3.388-.932-.408-1.781,1.3-1.848,2.43-2.306s2.605-.574,2.131-2.181-1.8-1.107-2.955-.832c-1.323.341-2.938,1.057-3.512-.832s1.34-1.773,2.389-2.289,2.78-.832,2.147-2.5-2.106-1.024-3.329-.683q-6.592,1.856-13.142,3.82c-7.491,2.231-6.942,2-4.819,8.873,1.015,3.279-.15,4.778-3.021,5.71-5.277,1.665-10.745,2.389-16.2,3.279-4.553.741-9.372.516-13.375,3.487-1.956,1.457-3.221,3.246-2.5,5.693s2.78,3.055,4.994,3.329c3.088.366,5.826-.832,8.556-2.064,5.826-2.622,11.528-5.393,17.562-7.491,5.7-1.948,7.1-1.215,8.689,4.436a21.7,21.7,0,0,0,.791,2.447,2.461,2.461,0,0,0,3.03,1.723c6.334-1.773,12.635-3.654,18.935-5.527a1.465,1.465,0,0,0,1.165-1.665C93.694,84.172,92.828,84.064,91.93,84.064ZM61.5,0A61.5,61.5,0,1,0,123,61.5,61.5,61.5,0,0,0,61.5,0Zm-.092,112.879A51.171,51.171,0,1,1,97.873,97.936,51.379,51.379,0,0,1,61.408,112.879Zm30.263-67.1c-6.259-.083-12.485.225-18.76.682-1.057,0-2.131.067-3.179,0s-2.5.5-2.822-.724,1.149-1.665,2.014-2.172c5.385-3.2,10.82-6.3,16.2-9.513,1.581-.941,4.653-1.665,4.162-3.238-.6-1.931-3.6-1.074-5.477-.924-10.379.832-19.876,3.562-25.66,13.317a3.049,3.049,0,0,1-4,1.573c-1.407-.466-2.871-.774-4.32-1.1a3.429,3.429,0,0,1-2.971-3.171c-.832-5.16-5.185-8.057-10.462-7.249S28.757,36.9,29.131,42.5c.283,4.162,3.837,7.108,8.656,7.075a12.485,12.485,0,0,0,5.826-1.54c1.981-1.032,6.85-.216,8.323,1.3.416.433.666.957.316,1.407-1.615,2.131-2.589,4.994-5.884,5.294A14.749,14.749,0,0,0,40.584,57.7c-3.987,2.164-5.876,7.158-4.162,10.82,2.014,4.22,6.192,5.826,10.7,4.162s7.7-6.659,6.018-10.737c-1.207-2.938-.566-4.778,1.665-6.584A17.479,17.479,0,0,0,57,53.044c1.032-1.24,2.272-1.665,3.646-.749,7.116,4.569,14.466,2.938,21.832.882a27.025,27.025,0,0,0,10.213-4.994c.558-.458,1.423-.982,1.215-1.74C93.578,45.37,92.454,45.778,91.672,45.778ZM37.454,47.009a5.693,5.693,0,0,1-5.826-5.785c.042-3.537,2.247-5.468,6.309-5.51,3.621,0,6.45,2.389,6.467,5.56C44.413,44.662,41.441,47.109,37.454,47.009ZM43.672,70.68a5.46,5.46,0,0,1-5.244-4.994c-.175-3.329,3.329-6.733,7.066-6.842a5.327,5.327,0,0,1,5.418,5.135c.042,3.363-3.471,6.65-7.266,6.7Z"/></svg>