<svg xmlns="http://www.w3.org/2000/svg" width="123" height="123" viewBox="0 0 123 123"><defs><style>.a{fill:#fff;}</style></defs><path class="a" d="M75.731,84.3a6.784,6.784,0,1,0,6.658,6.907h0A6.784,6.784,0,0,0,75.731,84.3Zm-20.555,0a6.789,6.789,0,1,0,7.074,6.741,6.873,6.873,0,0,0-6.907-6.824C55.342,84.3,55.258,84.3,55.175,84.3ZM89.129,41.694c-12.067,0-24.134-.083-36.2.083-3,.083-4.577-.666-5.16-3.911-.666-3.828-2.33-4.91-6.242-4.993-2.746-.083-5.409-.083-8.156,0-2.247.083-4.494-.25-6.658.333A4.262,4.262,0,0,0,23.3,37.7a4.182,4.182,0,0,0,3.662,4.327,10.469,10.469,0,0,0,3.578.333c2.83-.333,4.078.749,4.66,3.662,1.831,9.487,4.078,18.808,6.158,28.212,1.165,5.076,3.578,7.074,8.821,7.074H80.807c5.326,0,7.74-1.831,8.9-6.991,1.914-8.405,3.745-16.811,5.576-25.216C96.286,44.107,94.289,41.777,89.129,41.694ZM61.5,0A61.5,61.5,0,1,0,123,61.5,61.515,61.515,0,0,0,61.5,0Zm.416,112.847h-.5a51.265,51.265,0,1,1,.5,0Z"/></svg>