<svg xmlns="http://www.w3.org/2000/svg" width="123" height="123" viewBox="0 0 123 123"><defs><style>.a{fill:#fff;}</style></defs><path class="a" d="M59.045,43.838c.266-5.169-4.386-14.374-11.536-12.809-5.493,1.2-7.391,8.406-6.009,14.075C44.7,58.262,59.011,57.663,59.045,43.838Zm11.27,9.988c7.491,1.665,12.485-8.182,11.469-15.3C79.9,25.452,65.5,28.041,64.005,41.616c-.558,5.06,1.465,11.128,6.309,12.218ZM43.68,65.062C46.235,53.044,31,43.372,28.174,56.539v3.246C30.6,72.17,41.874,73.577,43.68,65.071ZM84.139,51.745C77.922,56.365,77.056,67.4,82.891,70c5.177,2.306,11.553-3.621,11.927-11.877.166-6.517-5.185-10.479-10.679-6.4ZM77.481,71.879c-7.116-9.039-5.46-8.623-8.173-12.069-3.9-4.994-10.146-4.5-14.216-.658S49.315,68.308,42.448,73.7c-9.422,7.383-8.323,19.976,4.212,18.577,4.911-.549,9.455-2.289,14.208-2.231,7.491.1,16.03,3.887,20.741,1.848,2.613-1.124,4.162-4.461,4.053-7.333-.183-6.559-5.718-9.655-8.14-12.71ZM61.5,0A61.5,61.5,0,1,0,123,61.5,61.5,61.5,0,0,0,61.5,0Zm-.092,112.879A51.171,51.171,0,1,1,97.873,97.936,51.379,51.379,0,0,1,61.408,112.879Z"/></svg>