<svg xmlns="http://www.w3.org/2000/svg" width="123" height="123" viewBox="0 0 123 123"><defs><style>.a{fill:#fff;}</style></defs><path class="a" d="M73.81,59.469c-2.539-2.247-5.66-3.462-8.731-4.761-2.1-.882-4.32-1.615-6.084-3.1-2.014-1.665-1.606-3.962.832-4.861a6.659,6.659,0,0,1,1.806-.35,18.86,18.86,0,0,1,9.156,1.665c2.83,1.265,4.045.707,4.936-2.281.466-1.531.891-3.08,1.307-4.628a2.936,2.936,0,0,0-1.831-3.9,18.91,18.91,0,0,0-5.984-1.831c-1.6-.166-2.347-.832-2.347-2.589,0-4.228-.782-4.869-5.052-4.836h-.375c-4.994,0-4.994,0-5.085,5.069v.741a2.355,2.355,0,0,1-1.748,2.5A25.278,25.278,0,0,0,50.8,38.178a14.249,14.249,0,0,0-1.565,23.413,35.632,35.632,0,0,0,9.1,4.869,27.766,27.766,0,0,1,5.477,2.663A3.454,3.454,0,0,1,65.47,72.4a3.379,3.379,0,0,1-2.455,2.963,10.97,10.97,0,0,1-5.269.616,29.756,29.756,0,0,1-8.39-2.63c-2.131-1.015-3.4-.441-4.162,1.8-.566,1.665-1.015,3.429-1.448,5.16-.6,2.38-.058,3.562,2.222,4.578a24.5,24.5,0,0,0,7.4,2.247c1.556.175,2.364.732,2.347,2.547-.067,5.119.433,5.518,5.61,5.56h.366c3.9,0,4.611-.7,4.569-4.644,0-3.587,0-3.587,3.171-4.927C80.527,81.051,82.8,67.418,73.81,59.469ZM61.5,0A61.5,61.5,0,1,0,123,61.5,61.5,61.5,0,0,0,61.5,0Zm-.092,112.879A51.171,51.171,0,1,1,97.873,97.936,51.379,51.379,0,0,1,61.408,112.879Z"/></svg>